<?xml version="1.0" standalone="no"?>
<!DOCTYPE svg PUBLIC "-//W3C//DTD SVG 20010904//EN"
 "http://www.w3.org/TR/2001/REC-SVG-20010904/DTD/svg10.dtd">
<svg version="1.0" xmlns="http://www.w3.org/2000/svg"
 width="148.000000pt" height="148.000000pt" viewBox="0 0 148.000000 148.000000"
 preserveAspectRatio="xMidYMid meet">
<metadata>
Created by potrace 1.14, written by Peter Selinger 2001-2017
</metadata>
<g transform="translate(0.000000,148.000000) scale(0.100000,-0.100000)"
fill="#000000" stroke="none">
<path d="M7 1473 c-4 -3 -7 -57 -7 -120 0 -84 3 -113 13 -113 8 0 7 -4 -3 -10
-11 -7 -8 -10 16 -10 16 0 35 -5 42 -12 9 -9 12 -9 12 0 0 8 17 11 50 10 50
-2 63 -11 35 -22 -10 -4 -15 -20 -15 -52 0 -38 -3 -45 -16 -40 -9 3 -20 6 -25
6 -5 0 -9 18 -9 40 0 22 -4 40 -8 40 -17 0 -32 -25 -32 -54 0 -16 -3 -26 -7
-23 -3 4 -13 1 -21 -5 -12 -10 -13 -6 -11 27 3 24 -1 40 -8 42 -10 4 -13 -81
-13 -376 l0 -381 190 0 c166 0 191 2 197 16 3 9 0 20 -8 24 -7 5 -10 12 -6 16
4 4 18 -3 32 -16 16 -15 21 -26 14 -30 -6 -4 -9 -11 -7 -15 1 -4 -90 -7 -204
-6 -204 2 -208 2 -208 -18 0 -21 5 -21 190 -21 159 0 197 -3 228 -17 l37 -17
-50 -4 c-27 -2 -130 -2 -228 0 l-177 3 0 -167 0 -168 740 0 740 0 0 170 0 170
-245 0 c-157 0 -245 4 -245 10 0 6 0 13 0 16 0 3 110 5 245 5 241 -2 245 -2
245 19 0 20 -5 20 -242 20 -133 0 -238 3 -235 6 4 4 112 6 242 5 l235 -2 0
405 c0 262 -4 406 -10 406 -5 0 -15 -9 -22 -20 -7 -11 -18 -20 -25 -20 -7 0
-13 -7 -13 -15 0 -8 -4 -15 -10 -15 -5 0 -10 -6 -10 -14 0 -8 -7 -17 -16 -20
-19 -7 -21 -6 -24 14 -6 38 1 50 25 50 14 0 25 5 25 11 0 16 -29 41 -40 34 -6
-3 -7 1 -4 9 7 18 84 23 84 6 0 -5 9 -10 20 -10 19 0 20 7 20 115 l0 115 -37
2 c-21 0 -45 0 -53 -1 -8 -2 -215 -9 -460 -16 -245 -7 -510 -16 -590 -19 -110
-5 -138 -3 -115 5 18 6 225 16 515 23 l485 13 -606 2 c-333 0 -609 -2 -612 -6z
m393 -223 c0 -6 17 -10 39 -10 22 0 44 -6 51 -15 9 -10 9 -15 1 -15 -6 0 -11
5 -11 10 0 6 -14 10 -31 10 -26 0 -30 -3 -26 -20 3 -13 -3 -24 -20 -35 -22
-15 -26 -15 -42 -1 -19 18 -41 5 -41 -24 0 -9 -9 -16 -21 -17 -16 -2 -20 3
-16 17 6 24 -16 56 -31 46 -7 -4 -12 -31 -12 -62 0 -47 -3 -54 -19 -54 -24 0
-35 30 -26 71 10 46 102 99 120 69 3 -5 13 -10 21 -10 10 0 12 5 7 13 -15 24
-10 32 23 34 19 2 34 -2 34 -7z m468 1 c1 -1 2 -10 2 -20 0 -11 10 -28 23 -38
45 -35 87 -104 87 -143 0 -52 -19 -105 -33 -91 -6 6 -29 11 -51 11 -30 0 -37
-3 -26 -10 12 -8 9 -10 -11 -10 -19 0 -28 -6 -32 -21 -5 -18 -10 -20 -29 -14
-13 5 -69 9 -126 11 -104 2 -130 8 -97 20 14 6 8 10 -26 20 -25 8 -46 9 -49 4
-3 -5 -16 -7 -28 -4 -51 14 -33 128 31 201 59 67 137 93 267 88 52 -2 96 -4
98 -4z m269 -6 c-4 -8 -2 -17 3 -20 6 -4 10 -1 10 4 0 6 6 11 14 11 13 0 10
-25 -11 -99 -5 -18 -12 -10 -18 18 -2 12 -11 28 -19 37 -19 19 -20 30 -3 49
16 19 31 19 24 0z m-242 -15 c3 -5 1 -10 -4 -10 -6 0 -11 5 -11 10 0 6 2 10 4
10 3 0 8 -4 11 -10z m66 -12 c4 1 5 -8 2 -18 -3 -11 -10 -20 -15 -20 -6 0 -8
7 -4 15 3 9 0 15 -8 15 -8 0 -16 7 -20 15 -5 13 -2 14 17 3 12 -7 25 -11 28
-10z m85 7 c6 -14 -3 -52 -10 -44 -2 2 -6 16 -10 32 -7 29 10 39 20 12z m174
-6 c0 -11 -4 -18 -10 -14 -5 3 -7 12 -3 20 7 21 13 19 13 -6z m36 -1 c-3 -13
-6 -32 -6 -42 0 -12 -3 -16 -9 -10 -11 12 -2 74 11 74 6 0 8 -10 4 -22z m54
-4 c0 -8 4 -14 9 -14 16 0 19 -39 5 -51 -19 -16 -23 -11 -31 46 -4 35 -3 46 5
41 7 -4 12 -14 12 -22z m-60 -331 c0 -5 -11 -8 -24 -8 -13 0 -22 3 -19 8 2 4
13 7 24 7 10 0 19 -3 19 -7z m97 1 c-3 -3 -12 -4 -19 -1 -8 3 -5 6 6 6 11 1
17 -2 13 -5z m76 -1 c-7 -2 -21 -2 -30 0 -10 3 -4 5 12 5 17 0 24 -2 18 -5z
m-1283 -18 c0 -8 -4 -15 -9 -15 -13 0 -22 16 -14 24 11 11 23 6 23 -9z m324
-1 c9 -24 0 -28 -23 -12 -12 8 -18 18 -14 21 12 12 31 7 37 -9z m106 -49 c85
-28 141 -31 214 -11 116 33 155 37 182 19 l25 -16 -25 -21 c-20 -17 -23 -25
-16 -43 10 -24 34 -31 45 -13 8 14 45 13 45 -1 0 -7 16 -27 36 -46 41 -38 40
-53 -8 -76 -27 -12 -42 -13 -79 -5 -35 8 -62 7 -120 -5 -86 -17 -340 -14 -386
5 -15 6 -30 12 -33 12 -3 1 -11 5 -18 10 -9 5 -18 2 -26 -10 -15 -20 -57 -26
-68 -10 -14 20 -9 76 6 76 21 0 46 28 40 45 -5 11 2 14 33 12 35 -2 38 0 38
23 0 16 -8 28 -22 35 -30 13 -29 23 0 18 14 -3 29 2 36 11 17 20 11 20 101 -9z
m-390 -1 c0 -2 -9 -4 -21 -4 -11 0 -18 4 -14 10 5 8 35 3 35 -6z m215 -4 c4
-6 -11 -10 -37 -9 -36 1 -39 2 -18 9 36 11 48 11 55 0z m-270 -75 c-2 -37 -15
-43 -15 -7 0 18 4 32 8 32 4 0 7 -11 7 -25z m214 -1 c2 -2 -14 -4 -37 -4 -23
0 -42 4 -42 9 0 8 70 4 79 -5z m904 -1 c-24 -2 -62 -2 -85 0 -24 2 -5 4 42 4
47 0 66 -2 43 -4z m187 -30 c0 -21 -3 -24 -9 -14 -5 8 -7 20 -4 28 8 21 13 15
13 -14z m-5 -43 c-3 -5 -11 -10 -16 -10 -6 0 -7 5 -4 10 3 6 11 10 16 10 6 0
7 -4 4 -10z m-895 -389 c0 -12 -20 -25 -27 -18 -7 7 6 27 18 27 5 0 9 -4 9 -9z
m400 -31 c0 -5 -4 -10 -10 -10 -5 0 -10 5 -10 10 0 6 5 10 10 10 6 0 10 -4 10
-10z"/>
<path d="M838 1233 c7 -3 16 -2 19 1 4 3 -2 6 -13 5 -11 0 -14 -3 -6 -6z"/>
<path d="M510 1078 c-24 -26 -23 -56 3 -72 23 -14 48 1 60 38 7 22 5 30 -9 41
-25 19 -30 19 -54 -7z m44 -19 c-3 -5 -10 -7 -15 -3 -5 3 -7 10 -3 15 3 5 10
7 15 3 5 -3 7 -10 3 -15z"/>
<path d="M832 1088 c-7 -7 -12 -24 -12 -40 0 -32 37 -62 64 -52 22 9 21 66 -2
87 -22 20 -34 21 -50 5z m25 -34 c-9 -9 -28 6 -21 18 4 6 10 6 17 -1 6 -6 8
-13 4 -17z"/>
<path d="M1263 1473 c9 -2 23 -2 30 0 6 3 -1 5 -18 5 -16 0 -22 -2 -12 -5z"/>
</g>
</svg>
